<?xml version="1.0" standalone="no"?><svg xmlns="http://www.w3.org/2000/svg" viewBox="0 0 1440 320"><path fill="#EDF1FC" fill-opacity="1" d="M0,96L10.9,117.3C21.8,139,44,181,65,170.7C87.3,160,109,96,131,64C152.7,32,175,32,196,64C218.2,96,240,160,262,202.7C283.6,245,305,267,327,229.3C349.1,192,371,96,393,101.3C414.5,107,436,213,458,266.7C480,320,502,320,524,293.3C545.5,267,567,213,589,165.3C610.9,117,633,75,655,85.3C676.4,96,698,160,720,181.3C741.8,203,764,181,785,176C807.3,171,829,181,851,192C872.7,203,895,213,916,197.3C938.2,181,960,139,982,154.7C1003.6,171,1025,245,1047,277.3C1069.1,309,1091,299,1113,261.3C1134.5,224,1156,160,1178,133.3C1200,107,1222,117,1244,117.3C1265.5,117,1287,107,1309,133.3C1330.9,160,1353,224,1375,250.7C1396.4,277,1418,267,1429,261.3L1440,256L1440,0L1429.1,0C1418.2,0,1396,0,1375,0C1352.7,0,1331,0,1309,0C1287.3,0,1265,0,1244,0C1221.8,0,1200,0,1178,0C1156.4,0,1135,0,1113,0C1090.9,0,1069,0,1047,0C1025.5,0,1004,0,982,0C960,0,938,0,916,0C894.5,0,873,0,851,0C829.1,0,807,0,785,0C763.6,0,742,0,720,0C698.2,0,676,0,655,0C632.7,0,611,0,589,0C567.3,0,545,0,524,0C501.8,0,480,0,458,0C436.4,0,415,0,393,0C370.9,0,349,0,327,0C305.5,0,284,0,262,0C240,0,218,0,196,0C174.5,0,153,0,131,0C109.1,0,87,0,65,0C43.6,0,22,0,11,0L0,0Z"></path></svg>